<mxfile host="app.diagrams.net" agent="Mozilla/5.0 (Windows NT 10.0; Win64; x64) AppleWebKit/537.36 (KHTML, like Gecko) Chrome/136.0.0.0 Safari/537.36" version="27.0.3">
  <diagram name="Page-1" id="e7e014a7-5840-1c2e-5031-d8a46d1fe8dd">
    <mxGraphModel dx="1042" dy="586" grid="1" gridSize="10" guides="1" tooltips="1" connect="1" arrows="1" fold="1" page="1" pageScale="1" pageWidth="1169" pageHeight="826" background="none" math="0" shadow="0">
      <root>
        <mxCell id="0" />
        <mxCell id="1" parent="0" />
        <mxCell id="Kv_WzzXOYerHrNogw9td-42" value="&lt;i&gt;Elemento&amp;nbsp;&lt;/i&gt;&amp;lt;&amp;lt;abstract&amp;gt;&amp;gt;" style="swimlane;fontStyle=1;align=center;verticalAlign=top;childLayout=stackLayout;horizontal=1;startSize=20;horizontalStack=0;resizeParent=1;resizeParentMax=0;resizeLast=0;collapsible=1;marginBottom=0;whiteSpace=wrap;html=1;" parent="1" vertex="1">
          <mxGeometry x="400" y="120" width="200" height="118" as="geometry">
            <mxRectangle x="360" y="130" width="90" height="30" as="alternateBounds" />
          </mxGeometry>
        </mxCell>
        <mxCell id="Kv_WzzXOYerHrNogw9td-43" value="&lt;font face=&quot;monospace&quot;&gt;- precio: double&lt;/font&gt;&lt;div&gt;&lt;font face=&quot;monospace&quot;&gt;- codigo: int&lt;/font&gt;&lt;/div&gt;" style="text;strokeColor=none;fillColor=none;align=left;verticalAlign=top;spacingLeft=4;spacingRight=4;overflow=hidden;rotatable=0;points=[[0,0.5],[1,0.5]];portConstraint=eastwest;whiteSpace=wrap;html=1;" parent="Kv_WzzXOYerHrNogw9td-42" vertex="1">
          <mxGeometry y="20" width="200" height="40" as="geometry" />
        </mxCell>
        <mxCell id="Kv_WzzXOYerHrNogw9td-44" value="" style="line;strokeWidth=1;fillColor=none;align=left;verticalAlign=middle;spacingTop=-1;spacingLeft=3;spacingRight=3;rotatable=0;labelPosition=right;points=[];portConstraint=eastwest;strokeColor=inherit;" parent="Kv_WzzXOYerHrNogw9td-42" vertex="1">
          <mxGeometry y="60" width="200" height="8" as="geometry" />
        </mxCell>
        <mxCell id="Kv_WzzXOYerHrNogw9td-45" value="&lt;i&gt;+ calcularPrecio(): double&lt;/i&gt;" style="text;strokeColor=none;fillColor=none;align=left;verticalAlign=top;spacingLeft=4;spacingRight=4;overflow=hidden;rotatable=0;points=[[0,0.5],[1,0.5]];portConstraint=eastwest;whiteSpace=wrap;html=1;" parent="Kv_WzzXOYerHrNogw9td-42" vertex="1">
          <mxGeometry y="68" width="200" height="50" as="geometry" />
        </mxCell>
        <mxCell id="L9QVm0s8zW-5p3j7hM3I-1" value="PiezaSimple" style="swimlane;fontStyle=1;align=center;verticalAlign=top;childLayout=stackLayout;horizontal=1;startSize=20;horizontalStack=0;resizeParent=1;resizeParentMax=0;resizeLast=0;collapsible=1;marginBottom=0;whiteSpace=wrap;html=1;" vertex="1" parent="1">
          <mxGeometry x="600" y="278" width="190" height="78" as="geometry">
            <mxRectangle x="360" y="130" width="90" height="30" as="alternateBounds" />
          </mxGeometry>
        </mxCell>
        <mxCell id="L9QVm0s8zW-5p3j7hM3I-3" value="" style="line;strokeWidth=1;fillColor=none;align=left;verticalAlign=middle;spacingTop=-1;spacingLeft=3;spacingRight=3;rotatable=0;labelPosition=right;points=[];portConstraint=eastwest;strokeColor=inherit;" vertex="1" parent="L9QVm0s8zW-5p3j7hM3I-1">
          <mxGeometry y="20" width="190" height="8" as="geometry" />
        </mxCell>
        <mxCell id="L9QVm0s8zW-5p3j7hM3I-4" value="+ calcularPrecio(): double" style="text;strokeColor=none;fillColor=none;align=left;verticalAlign=top;spacingLeft=4;spacingRight=4;overflow=hidden;rotatable=0;points=[[0,0.5],[1,0.5]];portConstraint=eastwest;whiteSpace=wrap;html=1;" vertex="1" parent="L9QVm0s8zW-5p3j7hM3I-1">
          <mxGeometry y="28" width="190" height="50" as="geometry" />
        </mxCell>
        <mxCell id="L9QVm0s8zW-5p3j7hM3I-5" value="Kit" style="swimlane;fontStyle=1;align=center;verticalAlign=top;childLayout=stackLayout;horizontal=1;startSize=20;horizontalStack=0;resizeParent=1;resizeParentMax=0;resizeLast=0;collapsible=1;marginBottom=0;whiteSpace=wrap;html=1;" vertex="1" parent="1">
          <mxGeometry x="160" y="278" width="240" height="120" as="geometry">
            <mxRectangle x="360" y="130" width="90" height="30" as="alternateBounds" />
          </mxGeometry>
        </mxCell>
        <mxCell id="L9QVm0s8zW-5p3j7hM3I-6" value="- elementos: List&amp;lt;Elemento&amp;gt;" style="text;strokeColor=none;fillColor=none;align=left;verticalAlign=top;spacingLeft=4;spacingRight=4;overflow=hidden;rotatable=0;points=[[0,0.5],[1,0.5]];portConstraint=eastwest;whiteSpace=wrap;html=1;" vertex="1" parent="L9QVm0s8zW-5p3j7hM3I-5">
          <mxGeometry y="20" width="240" height="40" as="geometry" />
        </mxCell>
        <mxCell id="L9QVm0s8zW-5p3j7hM3I-7" value="" style="line;strokeWidth=1;fillColor=none;align=left;verticalAlign=middle;spacingTop=-1;spacingLeft=3;spacingRight=3;rotatable=0;labelPosition=right;points=[];portConstraint=eastwest;strokeColor=inherit;" vertex="1" parent="L9QVm0s8zW-5p3j7hM3I-5">
          <mxGeometry y="60" width="240" height="8" as="geometry" />
        </mxCell>
        <mxCell id="L9QVm0s8zW-5p3j7hM3I-8" value="&lt;i&gt;+ agregarElemento(e: Elemento): void&lt;/i&gt;&lt;div&gt;&lt;i&gt;+ eliminarElemento(e: Elemento): void&lt;/i&gt;&lt;/div&gt;&lt;div&gt;&lt;i&gt;+calcularPrecio(): double&lt;/i&gt;&lt;/div&gt;" style="text;strokeColor=none;fillColor=none;align=left;verticalAlign=top;spacingLeft=4;spacingRight=4;overflow=hidden;rotatable=0;points=[[0,0.5],[1,0.5]];portConstraint=eastwest;whiteSpace=wrap;html=1;" vertex="1" parent="L9QVm0s8zW-5p3j7hM3I-5">
          <mxGeometry y="68" width="240" height="52" as="geometry" />
        </mxCell>
        <mxCell id="L9QVm0s8zW-5p3j7hM3I-10" style="edgeStyle=orthogonalEdgeStyle;rounded=0;orthogonalLoop=1;jettySize=auto;html=1;exitX=0.75;exitY=0;exitDx=0;exitDy=0;entryX=-0.014;entryY=0.068;entryDx=0;entryDy=0;entryPerimeter=0;" edge="1" parent="1" source="L9QVm0s8zW-5p3j7hM3I-5" target="Kv_WzzXOYerHrNogw9td-45">
          <mxGeometry relative="1" as="geometry" />
        </mxCell>
        <mxCell id="L9QVm0s8zW-5p3j7hM3I-11" value="Herencia" style="edgeLabel;html=1;align=center;verticalAlign=middle;resizable=0;points=[];" vertex="1" connectable="0" parent="L9QVm0s8zW-5p3j7hM3I-10">
          <mxGeometry x="-0.0459" y="1" relative="1" as="geometry">
            <mxPoint as="offset" />
          </mxGeometry>
        </mxCell>
        <mxCell id="L9QVm0s8zW-5p3j7hM3I-13" style="edgeStyle=orthogonalEdgeStyle;rounded=0;orthogonalLoop=1;jettySize=auto;html=1;exitX=0.25;exitY=0;exitDx=0;exitDy=0;entryX=1.018;entryY=0.052;entryDx=0;entryDy=0;entryPerimeter=0;" edge="1" parent="1" source="L9QVm0s8zW-5p3j7hM3I-1" target="Kv_WzzXOYerHrNogw9td-45">
          <mxGeometry relative="1" as="geometry" />
        </mxCell>
        <mxCell id="L9QVm0s8zW-5p3j7hM3I-14" value="Herencia" style="edgeLabel;html=1;align=center;verticalAlign=middle;resizable=0;points=[];" vertex="1" connectable="0" parent="L9QVm0s8zW-5p3j7hM3I-13">
          <mxGeometry x="0.0145" y="1" relative="1" as="geometry">
            <mxPoint as="offset" />
          </mxGeometry>
        </mxCell>
        <mxCell id="L9QVm0s8zW-5p3j7hM3I-16" value="1" style="endArrow=open;html=1;endSize=12;startArrow=diamondThin;startSize=14;startFill=1;edgeStyle=orthogonalEdgeStyle;align=left;verticalAlign=bottom;rounded=0;entryX=1.002;entryY=0.305;entryDx=0;entryDy=0;entryPerimeter=0;exitX=0.638;exitY=-0.023;exitDx=0;exitDy=0;exitPerimeter=0;" edge="1" parent="1" source="L9QVm0s8zW-5p3j7hM3I-1" target="Kv_WzzXOYerHrNogw9td-43">
          <mxGeometry x="0.8399" y="-2" relative="1" as="geometry">
            <mxPoint x="700" y="250" as="sourcePoint" />
            <mxPoint x="860" y="250" as="targetPoint" />
            <mxPoint as="offset" />
          </mxGeometry>
        </mxCell>
      </root>
    </mxGraphModel>
  </diagram>
</mxfile>
